<svg width="1592" height="958" viewBox="0 0 1592 958" fill="none" xmlns="http://www.w3.org/2000/svg">
<rect width="1592" height="958" fill="#0F172A"/>
<path d="M1039.12 481.87C1037.95 480.698 1036.05 480.698 1034.88 481.87C1033.71 483.041 1033.71 484.941 1034.88 486.113L1037 483.991L1039.12 481.87ZM1104.88 554.873C1106.54 554.873 1107.88 553.53 1107.88 551.873L1107.88 524.873C1107.88 523.217 1106.54 521.873 1104.88 521.873C1103.23 521.873 1101.88 523.217 1101.88 524.873L1101.88 548.873L1077.88 548.873C1076.23 548.873 1074.88 550.217 1074.88 551.873C1074.88 553.53 1076.23 554.873 1077.88 554.873L1104.88 554.873ZM1037 483.991L1034.88 486.113L1102.76 553.995L1104.88 551.873L1107 549.752L1039.12 481.87L1037 483.991Z" fill="white"/>
<path d="M1065.99 452C1064.33 452 1062.99 453.343 1062.99 455L1062.99 482C1062.99 483.657 1064.33 485 1065.99 485C1067.65 485 1068.99 483.657 1068.99 482L1068.99 458L1092.99 458C1094.65 458 1095.99 456.657 1095.99 455C1095.99 453.343 1094.65 452 1092.99 452L1065.99 452ZM1131.75 525.004C1132.92 526.175 1134.82 526.175 1135.99 525.004C1137.17 523.832 1137.17 521.933 1135.99 520.761L1133.87 522.882L1131.75 525.004ZM1065.99 455L1063.87 457.121L1131.75 525.004L1133.87 522.882L1135.99 520.761L1068.11 452.879L1065.99 455Z" fill="white"/>
<path fill-rule="evenodd" clip-rule="evenodd" d="M1452 633V690C1452 693.183 1450.74 696.235 1448.49 698.485C1446.23 700.736 1443.18 702 1440 702V696C1441.59 696 1443.12 695.368 1444.24 694.243C1445.37 693.117 1446 691.591 1446 690V633H1434C1431.61 633 1429.32 632.052 1427.64 630.364C1425.95 628.676 1425 626.387 1425 624V612H1392C1390.41 612 1388.88 612.632 1387.76 613.757C1386.63 614.883 1386 616.409 1386 618V672H1380V618C1380 614.817 1381.26 611.765 1383.51 609.515C1385.77 607.264 1388.82 606 1392 606H1425L1452 633ZM1372.24 701.094V685.134H1372.46L1378.18 698.088H1381.27L1386.95 685.128H1387.18V701.094H1391.47V677.1H1386.67L1379.83 692.676H1379.67L1372.83 677.1H1368V701.094H1372.24ZM1393.59 677.1V701.094H1402.34C1404.76 701.094 1406.75 700.62 1408.34 699.672C1409.94 698.713 1411.19 697.264 1411.91 695.538C1412.69 693.738 1413.08 691.57 1413.08 689.034C1413.08 686.514 1412.69 684.364 1411.91 682.584C1411.2 680.878 1409.96 679.447 1408.37 678.504C1406.79 677.568 1404.78 677.1 1402.34 677.1H1393.59ZM1398.33 680.97H1401.71C1403.2 680.97 1404.42 681.274 1405.37 681.882C1406.36 682.533 1407.1 683.49 1407.49 684.606C1407.96 685.814 1408.19 687.32 1408.19 689.124C1408.19 690.484 1408.06 691.668 1407.79 692.676C1407.59 693.594 1407.18 694.458 1406.62 695.208C1406.09 695.881 1405.4 696.403 1404.61 696.72C1403.68 697.067 1402.7 697.234 1401.71 697.212H1398.34V680.97H1398.33ZM1427.05 677.1H1432.42L1424.76 689.142L1432.28 701.094H1426.84L1421.74 692.604H1421.53L1416.41 701.094H1411.24L1418.68 688.998L1411.32 677.1H1416.91L1421.9 685.734H1422.11L1427.05 677.1Z" fill="#F8FAFC"/>
<path fill-rule="evenodd" clip-rule="evenodd" d="M1452 505V562C1452 565.183 1450.74 568.235 1448.49 570.485C1446.23 572.736 1443.18 574 1440 574H1422V568H1440C1441.59 568 1443.12 567.368 1444.24 566.243C1445.37 565.117 1446 563.591 1446 562V505H1434C1431.61 505 1429.32 504.052 1427.64 502.364C1425.95 500.676 1425 498.387 1425 496V484H1392C1390.41 484 1388.88 484.632 1387.76 485.757C1386.63 486.883 1386 488.409 1386 490V544H1380V490C1380 486.817 1381.26 483.765 1383.51 481.515C1385.77 479.264 1388.82 478 1392 478H1425L1452 505ZM1372.24 557.134V573.094H1368V549.1H1372.84L1379.68 564.676H1379.83L1386.67 549.1H1391.47V573.094H1387.18V557.134H1386.95L1381.27 570.088H1378.18L1372.46 557.128H1372.24V557.134ZM1395.75 573.094V549.1H1404.5C1406.94 549.1 1408.95 549.568 1410.53 550.504C1412.12 551.44 1413.3 552.8 1414.07 554.584C1414.85 556.364 1415.24 558.514 1415.24 561.034C1415.24 563.57 1414.85 565.738 1414.07 567.538C1413.28 569.342 1412.09 570.72 1410.5 571.672C1408.91 572.62 1406.91 573.094 1404.5 573.094H1395.75ZM1403.87 552.97H1400.5V569.212H1403.87C1404.98 569.212 1405.95 569.048 1406.77 568.72C1407.56 568.403 1408.25 567.881 1408.78 567.208C1409.34 566.458 1409.75 565.594 1409.95 564.676C1410.22 563.668 1410.35 562.484 1410.35 561.124C1410.4 559.588 1410.16 558.057 1409.65 556.606C1409.26 555.49 1408.52 554.533 1407.53 553.882C1406.58 553.274 1405.36 552.97 1403.87 552.97Z" fill="#F8FAFC"/>
<g clip-path="url(#clip0_6260_5687)">
<path fill-rule="evenodd" clip-rule="evenodd" d="M1452 761V800H1446V761H1434C1431.61 761 1429.32 760.052 1427.64 758.364C1425.95 756.676 1425 754.387 1425 752V740H1392C1390.41 740 1388.88 740.632 1387.76 741.757C1386.63 742.883 1386 744.409 1386 746V800H1380V746C1380 742.817 1381.26 739.765 1383.51 737.515C1385.77 735.264 1388.82 734 1392 734H1425L1452 761ZM1392.91 825.74C1392.51 824.894 1392.29 823.979 1392.24 823.046H1396.82C1396.91 823.514 1397.09 823.96 1397.35 824.357C1397.61 824.753 1397.95 825.091 1398.35 825.35C1398.77 825.642 1399.27 825.87 1399.85 826.034C1400.42 826.198 1401.06 826.28 1401.77 826.28C1402.75 826.28 1403.57 826.14 1404.25 825.86C1404.86 825.631 1405.39 825.229 1405.78 824.702C1406.12 824.188 1406.3 823.58 1406.28 822.962C1406.3 822.587 1406.22 822.213 1406.06 821.873C1405.9 821.532 1405.67 821.235 1405.37 821.006C1404.76 820.526 1403.83 820.14 1402.59 819.848L1398.88 818.99C1397.74 818.75 1396.64 818.316 1395.65 817.706C1394.77 817.166 1394.04 816.408 1393.54 815.504C1393.03 814.533 1392.78 813.453 1392.8 812.36C1392.8 810.896 1393.18 809.618 1393.94 808.526C1394.71 807.438 1395.76 806.594 1397.11 805.994C1398.45 805.394 1400.01 805.096 1401.77 805.1C1403.59 805.1 1405.15 805.404 1406.44 806.012C1407.75 806.624 1408.75 807.444 1409.44 808.472C1410.16 809.492 1410.56 810.624 1410.64 811.868H1406.14C1406.04 811.299 1405.79 810.765 1405.42 810.32C1405.03 809.837 1404.52 809.463 1403.95 809.234C1403.24 808.943 1402.49 808.804 1401.73 808.826C1400.43 808.826 1399.41 809.13 1398.65 809.738C1398.3 810.007 1398.02 810.357 1397.82 810.757C1397.63 811.157 1397.53 811.598 1397.54 812.042C1397.54 812.762 1397.83 813.362 1398.41 813.842C1399.13 814.368 1399.96 814.726 1400.83 814.892L1404.56 815.75C1405.86 816.05 1406.99 816.472 1407.95 817.016C1408.88 817.522 1409.66 818.263 1410.2 819.164C1410.74 820.052 1411.01 821.172 1411.01 822.524C1411.01 824.004 1410.64 825.316 1409.89 826.46C1409.09 827.638 1407.97 828.554 1406.65 829.094C1405.25 829.726 1403.53 830.042 1401.5 830.042C1399.98 830.042 1398.65 829.862 1397.51 829.502C1396.47 829.189 1395.49 828.675 1394.65 827.99C1393.91 827.375 1393.32 826.608 1392.91 825.74ZM1374.28 825.542C1373.95 824.648 1373.78 823.7 1373.79 822.746H1378.37C1378.39 823.313 1378.54 823.869 1378.82 824.366C1379.09 824.837 1379.49 825.223 1379.97 825.483C1380.45 825.743 1381 825.867 1381.54 825.842C1382.68 825.842 1383.53 825.514 1384.07 824.858C1384.62 824.198 1384.9 823.266 1384.9 822.062V805.592H1389.64V821.942C1389.64 824.582 1388.93 826.592 1387.5 827.972C1386.08 829.352 1384.11 830.042 1381.59 830.042C1380.43 830.062 1379.27 829.871 1378.18 829.478C1377.26 829.126 1376.43 828.582 1375.74 827.882C1375.09 827.213 1374.6 826.416 1374.28 825.542ZM1428.83 816.032V819.164C1428.83 820.7 1428.59 821.982 1428.13 823.01C1427.73 823.959 1427.06 824.768 1426.19 825.332C1425.34 825.838 1424.37 826.1 1423.37 826.088C1422.38 826.1 1421.41 825.838 1420.55 825.332C1419.7 824.764 1419.03 823.956 1418.63 823.01C1418.13 821.792 1417.89 820.481 1417.93 819.164V816.032C1417.93 814.488 1418.17 813.206 1418.63 812.186C1419.03 811.24 1419.7 810.432 1420.55 809.864C1421.4 809.343 1422.38 809.074 1423.37 809.09C1424.43 809.09 1425.37 809.348 1426.19 809.864C1427.06 810.428 1427.73 811.237 1428.13 812.186C1428.59 813.206 1428.83 814.488 1428.83 816.032ZM1433.65 819.146V816.068C1433.65 813.808 1433.24 811.862 1432.42 810.23C1431.64 808.642 1430.41 807.324 1428.88 806.45C1427.36 805.57 1425.52 805.13 1423.38 805.13C1421.24 805.13 1419.4 805.57 1417.86 806.45C1416.33 807.316 1415.09 808.631 1414.33 810.218C1413.51 811.846 1413.1 813.796 1413.1 816.068V819.146C1413.1 821.394 1413.51 823.34 1414.33 824.984C1415.15 826.612 1416.32 827.864 1417.86 828.74C1419.4 829.608 1421.24 830.042 1423.38 830.042C1425.52 830.042 1427.36 829.608 1428.88 828.74C1430.42 827.86 1431.6 826.608 1432.42 824.984C1433.23 823.344 1433.64 821.398 1433.65 819.146ZM1441.39 813.536V829.586H1436.91V805.592H1440.88L1451.39 821.552H1451.59V805.592H1456.09V829.592H1452.15L1441.58 813.536H1441.39Z" fill="#F8FAFC"/>
</g>
<path d="M1224 523C1153.28 523 1096 580.28 1096 651C1096 707.64 1132.64 755.48 1183.52 772.44C1189.92 773.56 1192.32 769.72 1192.32 766.36C1192.32 763.32 1192.16 753.24 1192.16 742.52C1160 748.44 1151.68 734.68 1149.12 727.48C1147.68 723.8 1141.44 712.44 1136 709.4C1131.52 707 1125.12 701.08 1135.84 700.92C1145.92 700.76 1153.12 710.2 1155.52 714.04C1167.04 733.4 1185.44 727.96 1192.8 724.6C1193.92 716.28 1197.28 710.68 1200.96 707.48C1172.48 704.28 1142.72 693.24 1142.72 644.28C1142.72 630.36 1147.68 618.84 1155.84 609.88C1154.56 606.68 1150.08 593.56 1157.12 575.96C1157.12 575.96 1167.84 572.6 1192.32 589.08C1202.56 586.2 1213.44 584.76 1224.32 584.76C1235.2 584.76 1246.08 586.2 1256.32 589.08C1280.8 572.44 1291.52 575.96 1291.52 575.96C1298.56 593.56 1294.08 606.68 1292.8 609.88C1300.96 618.84 1305.92 630.2 1305.92 644.28C1305.92 693.4 1276 704.28 1247.52 707.48C1252.16 711.48 1256.16 719.16 1256.16 731.16C1256.16 748.28 1256 762.04 1256 766.36C1256 769.72 1258.4 773.72 1264.8 772.44C1290.21 763.868 1312.3 747.539 1327.94 725.752C1343.59 703.966 1352 677.821 1352 651C1352 580.28 1294.72 523 1224 523Z" fill="#F8FAFC"/>
<path d="M1167.36 806.375C1167.12 805.545 1166.79 804.812 1166.36 804.176C1165.92 803.528 1165.4 802.983 1164.77 802.54C1164.16 802.085 1163.45 801.739 1162.66 801.5C1161.87 801.261 1161 801.142 1160.05 801.142C1158.26 801.142 1156.7 801.585 1155.34 802.472C1154 803.358 1152.96 804.648 1152.21 806.341C1151.46 808.023 1151.08 810.08 1151.08 812.511C1151.08 814.943 1151.45 817.011 1152.19 818.716C1152.93 820.42 1153.98 821.722 1155.33 822.619C1156.68 823.506 1158.28 823.949 1160.12 823.949C1161.79 823.949 1163.21 823.653 1164.4 823.062C1165.59 822.46 1166.5 821.614 1167.12 820.523C1167.76 819.432 1168.08 818.142 1168.08 816.653L1169.58 816.875H1160.58V811.318H1175.19V815.716C1175.19 818.784 1174.54 821.42 1173.24 823.625C1171.95 825.818 1170.16 827.511 1167.89 828.705C1165.62 829.886 1163.01 830.477 1160.08 830.477C1156.81 830.477 1153.94 829.756 1151.46 828.312C1148.98 826.858 1147.05 824.795 1145.66 822.125C1144.29 819.443 1143.6 816.261 1143.6 812.58C1143.6 809.75 1144.01 807.227 1144.83 805.011C1145.66 802.784 1146.82 800.898 1148.3 799.352C1149.79 797.807 1151.53 796.631 1153.5 795.824C1155.48 795.017 1157.62 794.614 1159.93 794.614C1161.91 794.614 1163.75 794.903 1165.45 795.483C1167.16 796.051 1168.67 796.858 1169.99 797.903C1171.32 798.949 1172.4 800.193 1173.24 801.636C1174.08 803.068 1174.62 804.648 1174.86 806.375H1167.36ZM1182.23 830V803.818H1189.5V830H1182.23ZM1185.88 800.443C1184.8 800.443 1183.88 800.085 1183.1 799.369C1182.34 798.642 1181.96 797.773 1181.96 796.761C1181.96 795.761 1182.34 794.903 1183.1 794.188C1183.88 793.46 1184.8 793.097 1185.88 793.097C1186.96 793.097 1187.88 793.46 1188.64 794.188C1189.42 794.903 1189.8 795.761 1189.8 796.761C1189.8 797.773 1189.42 798.642 1188.64 799.369C1187.88 800.085 1186.96 800.443 1185.88 800.443ZM1209.24 803.818V809.273H1193.47V803.818H1209.24ZM1197.05 797.545H1204.31V821.955C1204.31 822.625 1204.41 823.148 1204.62 823.523C1204.82 823.886 1205.11 824.142 1205.47 824.29C1205.85 824.437 1206.28 824.511 1206.77 824.511C1207.11 824.511 1207.45 824.483 1207.79 824.426C1208.13 824.358 1208.39 824.307 1208.57 824.273L1209.72 829.676C1209.35 829.79 1208.84 829.92 1208.18 830.068C1207.52 830.227 1206.72 830.324 1205.78 830.358C1204.03 830.426 1202.49 830.193 1201.18 829.659C1199.87 829.125 1198.85 828.295 1198.12 827.17C1197.4 826.045 1197.04 824.625 1197.05 822.909V797.545ZM1214.67 830V795.091H1222.05V809.494H1237.03V795.091H1244.39V830H1237.03V815.58H1222.05V830H1214.67ZM1267.13 818.852V803.818H1274.39V830H1267.42V825.244H1267.15C1266.56 826.778 1265.58 828.011 1264.2 828.943C1262.84 829.875 1261.17 830.341 1259.21 830.341C1257.46 830.341 1255.92 829.943 1254.59 829.148C1253.26 828.352 1252.22 827.222 1251.47 825.756C1250.73 824.29 1250.35 822.534 1250.34 820.489V803.818H1257.6V819.193C1257.62 820.739 1258.03 821.96 1258.85 822.858C1259.67 823.756 1260.76 824.205 1262.14 824.205C1263.01 824.205 1263.83 824.006 1264.59 823.608C1265.35 823.199 1265.97 822.597 1266.43 821.801C1266.91 821.006 1267.14 820.023 1267.13 818.852ZM1280.34 830V795.091H1287.6V808.216H1287.82C1288.14 807.511 1288.6 806.795 1289.2 806.068C1289.82 805.33 1290.61 804.716 1291.59 804.227C1292.58 803.727 1293.8 803.477 1295.27 803.477C1297.18 803.477 1298.94 803.977 1300.55 804.977C1302.17 805.966 1303.46 807.46 1304.42 809.46C1305.39 811.449 1305.87 813.943 1305.87 816.943C1305.87 819.864 1305.4 822.33 1304.46 824.341C1303.53 826.341 1302.25 827.858 1300.64 828.892C1299.04 829.915 1297.24 830.426 1295.25 830.426C1293.84 830.426 1292.65 830.193 1291.66 829.727C1290.68 829.261 1289.88 828.676 1289.25 827.972C1288.63 827.256 1288.15 826.534 1287.82 825.807H1287.5V830H1280.34ZM1287.45 816.909C1287.45 818.466 1287.66 819.824 1288.09 820.983C1288.53 822.142 1289.15 823.045 1289.97 823.693C1290.79 824.33 1291.78 824.648 1292.95 824.648C1294.13 824.648 1295.13 824.324 1295.95 823.676C1296.77 823.017 1297.39 822.108 1297.81 820.949C1298.24 819.778 1298.46 818.432 1298.46 816.909C1298.46 815.398 1298.25 814.068 1297.83 812.92C1297.41 811.773 1296.79 810.875 1295.97 810.227C1295.15 809.58 1294.15 809.256 1292.95 809.256C1291.77 809.256 1290.77 809.568 1289.95 810.193C1289.15 810.818 1288.53 811.705 1288.09 812.852C1287.66 814 1287.45 815.352 1287.45 816.909Z" fill="white"/>
<path d="M799.088 170.992C813.744 164.336 834.576 160 858 160C881.424 160 902.256 164.32 916.912 170.992C932.304 178 938 186.032 938 192C938 197.984 932.304 206 916.912 213.008C902.256 219.664 881.424 224 858 224C834.576 224 813.744 219.68 799.088 213.008C783.696 206 778 197.968 778 192C778 186.016 783.696 178 799.088 170.992ZM938 219.168V240C938 245.984 932.304 254 916.912 261.008C902.256 267.664 881.424 272 858 272C834.576 272 813.744 267.68 799.088 261.008C783.696 254 778 245.968 778 240V219.168C782.336 222.4 787.28 225.216 792.464 227.568C809.648 235.376 832.832 240 858 240C883.168 240 906.352 235.376 923.536 227.568C928.638 225.281 933.485 222.466 938 219.168ZM954 192C954 175.888 940 163.92 923.536 156.432C906.352 148.624 883.168 144 858 144C832.832 144 809.648 148.624 792.464 156.432C776 163.92 762 175.888 762 192V336C762 352.112 776 364.08 792.464 371.568C809.648 379.36 832.832 384 858 384C883.168 384 906.352 379.376 923.536 371.568C940 364.08 954 352.112 954 336V192ZM938 267.168V288C938 293.984 932.304 302 916.912 309.008C902.256 315.664 881.424 320 858 320C834.576 320 813.744 315.68 799.088 309.008C783.696 302 778 293.968 778 288V267.168C782.336 270.4 787.28 273.216 792.464 275.568C809.648 283.36 832.832 288 858 288C883.168 288 906.352 283.376 923.536 275.568C928.638 273.281 933.485 270.466 938 267.168ZM938 315.168V336C938 341.984 932.304 350 916.912 357.008C902.256 363.664 881.424 368 858 368C834.576 368 813.744 363.68 799.088 357.008C783.696 350 778 341.968 778 336V315.168C782.336 318.4 787.28 321.216 792.464 323.568C809.648 331.36 832.832 336 858 336C883.168 336 906.352 331.376 923.536 323.568C928.72 321.216 933.664 318.4 938 315.168Z" fill="#F8FAFC"/>
<path d="M677.165 406.176V400.091H705.836V406.176H695.148V435H687.853V406.176H677.165ZM710.421 435V408.818H717.683V435H710.421ZM714.069 405.443C712.989 405.443 712.063 405.085 711.29 404.369C710.529 403.642 710.148 402.773 710.148 401.761C710.148 400.761 710.529 399.903 711.29 399.188C712.063 398.46 712.989 398.097 714.069 398.097C715.148 398.097 716.069 398.46 716.83 399.188C717.603 399.903 717.989 400.761 717.989 401.761C717.989 402.773 717.603 403.642 716.83 404.369C716.069 405.085 715.148 405.443 714.069 405.443ZM730.761 419.864V435H723.499V408.818H730.42V413.438H730.727C731.306 411.915 732.278 410.71 733.641 409.824C735.005 408.926 736.658 408.477 738.602 408.477C740.42 408.477 742.005 408.875 743.357 409.67C744.71 410.466 745.761 411.602 746.511 413.08C747.261 414.545 747.636 416.295 747.636 418.33V435H740.374V419.625C740.386 418.023 739.977 416.773 739.147 415.875C738.317 414.966 737.175 414.511 735.721 414.511C734.744 414.511 733.88 414.722 733.13 415.142C732.391 415.562 731.812 416.176 731.391 416.983C730.982 417.778 730.772 418.739 730.761 419.864ZM760.825 435.494C759.154 435.494 757.665 435.205 756.359 434.625C755.052 434.034 754.018 433.165 753.256 432.017C752.506 430.858 752.131 429.415 752.131 427.688C752.131 426.233 752.398 425.011 752.933 424.023C753.467 423.034 754.194 422.239 755.114 421.636C756.035 421.034 757.08 420.58 758.251 420.273C759.433 419.966 760.671 419.75 761.967 419.625C763.489 419.466 764.717 419.318 765.648 419.182C766.58 419.034 767.256 418.818 767.677 418.534C768.097 418.25 768.308 417.83 768.308 417.273V417.17C768.308 416.091 767.967 415.256 767.285 414.665C766.614 414.074 765.66 413.778 764.421 413.778C763.114 413.778 762.075 414.068 761.302 414.648C760.529 415.216 760.018 415.932 759.768 416.795L753.052 416.25C753.393 414.659 754.063 413.284 755.063 412.125C756.063 410.955 757.353 410.057 758.933 409.432C760.523 408.795 762.364 408.477 764.455 408.477C765.91 408.477 767.302 408.648 768.631 408.989C769.972 409.33 771.16 409.858 772.194 410.574C773.239 411.29 774.063 412.21 774.665 413.335C775.268 414.449 775.569 415.784 775.569 417.341V435H768.683V431.369H768.478C768.058 432.188 767.495 432.909 766.79 433.534C766.086 434.148 765.239 434.631 764.251 434.983C763.262 435.324 762.12 435.494 760.825 435.494ZM762.904 430.483C763.972 430.483 764.915 430.273 765.734 429.852C766.552 429.42 767.194 428.841 767.66 428.114C768.126 427.386 768.359 426.562 768.359 425.642V422.864C768.131 423.011 767.819 423.148 767.421 423.273C767.035 423.386 766.597 423.494 766.109 423.597C765.62 423.687 765.131 423.773 764.643 423.852C764.154 423.92 763.711 423.983 763.313 424.04C762.461 424.165 761.717 424.364 761.08 424.636C760.444 424.909 759.95 425.278 759.597 425.744C759.245 426.199 759.069 426.767 759.069 427.449C759.069 428.438 759.427 429.193 760.143 429.716C760.87 430.227 761.79 430.483 762.904 430.483ZM804.823 435H792.448V400.091H804.925C808.437 400.091 811.46 400.79 813.994 402.188C816.528 403.574 818.477 405.568 819.84 408.17C821.215 410.773 821.903 413.886 821.903 417.511C821.903 421.148 821.215 424.273 819.84 426.886C818.477 429.5 816.516 431.506 813.96 432.903C811.414 434.301 808.369 435 804.823 435ZM799.829 428.676H804.516C806.698 428.676 808.533 428.29 810.022 427.517C811.522 426.733 812.647 425.523 813.397 423.886C814.158 422.239 814.539 420.114 814.539 417.511C814.539 414.932 814.158 412.824 813.397 411.188C812.647 409.551 811.528 408.347 810.039 407.574C808.55 406.801 806.715 406.415 804.533 406.415H799.829V428.676ZM834.7 435.494C833.029 435.494 831.54 435.205 830.234 434.625C828.927 434.034 827.893 433.165 827.131 432.017C826.381 430.858 826.006 429.415 826.006 427.688C826.006 426.233 826.273 425.011 826.808 424.023C827.342 423.034 828.069 422.239 828.989 421.636C829.91 421.034 830.955 420.58 832.126 420.273C833.308 419.966 834.546 419.75 835.842 419.625C837.364 419.466 838.592 419.318 839.523 419.182C840.455 419.034 841.131 418.818 841.552 418.534C841.972 418.25 842.183 417.83 842.183 417.273V417.17C842.183 416.091 841.842 415.256 841.16 414.665C840.489 414.074 839.535 413.778 838.296 413.778C836.989 413.778 835.95 414.068 835.177 414.648C834.404 415.216 833.893 415.932 833.643 416.795L826.927 416.25C827.268 414.659 827.938 413.284 828.938 412.125C829.938 410.955 831.228 410.057 832.808 409.432C834.398 408.795 836.239 408.477 838.33 408.477C839.785 408.477 841.177 408.648 842.506 408.989C843.847 409.33 845.035 409.858 846.069 410.574C847.114 411.29 847.938 412.21 848.54 413.335C849.143 414.449 849.444 415.784 849.444 417.341V435H842.558V431.369H842.353C841.933 432.188 841.37 432.909 840.665 433.534C839.961 434.148 839.114 434.631 838.126 434.983C837.137 435.324 835.995 435.494 834.7 435.494ZM836.779 430.483C837.847 430.483 838.79 430.273 839.609 429.852C840.427 429.42 841.069 428.841 841.535 428.114C842.001 427.386 842.234 426.562 842.234 425.642V422.864C842.006 423.011 841.694 423.148 841.296 423.273C840.91 423.386 840.472 423.494 839.984 423.597C839.495 423.687 839.006 423.773 838.518 423.852C838.029 423.92 837.586 423.983 837.188 424.04C836.336 424.165 835.592 424.364 834.955 424.636C834.319 424.909 833.825 425.278 833.472 425.744C833.12 426.199 832.944 426.767 832.944 427.449C832.944 428.438 833.302 429.193 834.018 429.716C834.745 430.227 835.665 430.483 836.779 430.483ZM869.004 408.818V414.273H853.237V408.818H869.004ZM856.816 402.545H864.077V426.955C864.077 427.625 864.18 428.148 864.384 428.523C864.589 428.886 864.873 429.142 865.237 429.29C865.612 429.437 866.043 429.511 866.532 429.511C866.873 429.511 867.214 429.483 867.555 429.426C867.896 429.358 868.157 429.307 868.339 429.273L869.481 434.676C869.117 434.79 868.606 434.92 867.947 435.068C867.288 435.227 866.487 435.324 865.543 435.358C863.793 435.426 862.259 435.193 860.941 434.659C859.634 434.125 858.617 433.295 857.89 432.17C857.163 431.045 856.805 429.625 856.816 427.909V402.545ZM881.2 435.494C879.529 435.494 878.04 435.205 876.734 434.625C875.427 434.034 874.393 433.165 873.631 432.017C872.881 430.858 872.506 429.415 872.506 427.688C872.506 426.233 872.773 425.011 873.308 424.023C873.842 423.034 874.569 422.239 875.489 421.636C876.41 421.034 877.455 420.58 878.626 420.273C879.808 419.966 881.046 419.75 882.342 419.625C883.864 419.466 885.092 419.318 886.023 419.182C886.955 419.034 887.631 418.818 888.052 418.534C888.472 418.25 888.683 417.83 888.683 417.273V417.17C888.683 416.091 888.342 415.256 887.66 414.665C886.989 414.074 886.035 413.778 884.796 413.778C883.489 413.778 882.45 414.068 881.677 414.648C880.904 415.216 880.393 415.932 880.143 416.795L873.427 416.25C873.768 414.659 874.438 413.284 875.438 412.125C876.438 410.955 877.728 410.057 879.308 409.432C880.898 408.795 882.739 408.477 884.83 408.477C886.285 408.477 887.677 408.648 889.006 408.989C890.347 409.33 891.535 409.858 892.569 410.574C893.614 411.29 894.438 412.21 895.04 413.335C895.643 414.449 895.944 415.784 895.944 417.341V435H889.058V431.369H888.853C888.433 432.188 887.87 432.909 887.165 433.534C886.461 434.148 885.614 434.631 884.626 434.983C883.637 435.324 882.495 435.494 881.2 435.494ZM883.279 430.483C884.347 430.483 885.29 430.273 886.109 429.852C886.927 429.42 887.569 428.841 888.035 428.114C888.501 427.386 888.734 426.562 888.734 425.642V422.864C888.506 423.011 888.194 423.148 887.796 423.273C887.41 423.386 886.972 423.494 886.484 423.597C885.995 423.687 885.506 423.773 885.018 423.852C884.529 423.92 884.086 423.983 883.688 424.04C882.836 424.165 882.092 424.364 881.455 424.636C880.819 424.909 880.325 425.278 879.972 425.744C879.62 426.199 879.444 426.767 879.444 427.449C879.444 428.438 879.802 429.193 880.518 429.716C881.245 430.227 882.165 430.483 883.279 430.483ZM912.823 435V400.091H920.204V428.915H935.17V435H912.823ZM947.387 435.494C945.717 435.494 944.228 435.205 942.921 434.625C941.614 434.034 940.58 433.165 939.819 432.017C939.069 430.858 938.694 429.415 938.694 427.688C938.694 426.233 938.961 425.011 939.495 424.023C940.029 423.034 940.756 422.239 941.677 421.636C942.597 421.034 943.643 420.58 944.813 420.273C945.995 419.966 947.234 419.75 948.529 419.625C950.052 419.466 951.279 419.318 952.211 419.182C953.143 419.034 953.819 418.818 954.239 418.534C954.66 418.25 954.87 417.83 954.87 417.273V417.17C954.87 416.091 954.529 415.256 953.847 414.665C953.177 414.074 952.222 413.778 950.984 413.778C949.677 413.778 948.637 414.068 947.864 414.648C947.092 415.216 946.58 415.932 946.33 416.795L939.614 416.25C939.955 414.659 940.626 413.284 941.626 412.125C942.626 410.955 943.915 410.057 945.495 409.432C947.086 408.795 948.927 408.477 951.018 408.477C952.472 408.477 953.864 408.648 955.194 408.989C956.535 409.33 957.722 409.858 958.756 410.574C959.802 411.29 960.626 412.21 961.228 413.335C961.83 414.449 962.131 415.784 962.131 417.341V435H955.245V431.369H955.04C954.62 432.188 954.058 432.909 953.353 433.534C952.648 434.148 951.802 434.631 950.813 434.983C949.825 435.324 948.683 435.494 947.387 435.494ZM949.467 430.483C950.535 430.483 951.478 430.273 952.296 429.852C953.114 429.42 953.756 428.841 954.222 428.114C954.688 427.386 954.921 426.562 954.921 425.642V422.864C954.694 423.011 954.381 423.148 953.984 423.273C953.597 423.386 953.16 423.494 952.671 423.597C952.183 423.687 951.694 423.773 951.205 423.852C950.717 423.92 950.273 423.983 949.876 424.04C949.023 424.165 948.279 424.364 947.643 424.636C947.006 424.909 946.512 425.278 946.16 425.744C945.808 426.199 945.631 426.767 945.631 427.449C945.631 428.438 945.989 429.193 946.705 429.716C947.433 430.227 948.353 430.483 949.467 430.483ZM971.31 444.818C970.39 444.818 969.526 444.744 968.719 444.597C967.924 444.46 967.265 444.284 966.742 444.068L968.379 438.648C969.231 438.909 969.998 439.051 970.68 439.074C971.373 439.097 971.969 438.938 972.469 438.597C972.981 438.256 973.396 437.676 973.714 436.858L974.14 435.75L964.748 408.818H972.384L977.805 428.045H978.077L983.549 408.818H991.237L981.06 437.83C980.572 439.239 979.907 440.466 979.066 441.511C978.237 442.568 977.185 443.381 975.913 443.949C974.64 444.528 973.106 444.818 971.31 444.818ZM1006.04 435.511C1003.35 435.511 1001.03 434.966 999.086 433.875C997.154 432.773 995.665 431.216 994.62 429.205C993.575 427.182 993.052 424.79 993.052 422.028C993.052 419.335 993.575 416.972 994.62 414.938C995.665 412.903 997.137 411.318 999.035 410.182C1000.94 409.045 1003.18 408.477 1005.75 408.477C1007.48 408.477 1009.09 408.756 1010.57 409.312C1012.07 409.858 1013.38 410.682 1014.5 411.784C1015.62 412.886 1016.5 414.273 1017.12 415.943C1017.75 417.602 1018.06 419.545 1018.06 421.773V423.767H995.95V419.267H1011.22C1011.22 418.222 1011 417.295 1010.54 416.489C1010.09 415.682 1009.46 415.051 1008.65 414.597C1007.85 414.131 1006.93 413.898 1005.87 413.898C1004.77 413.898 1003.79 414.153 1002.94 414.665C1002.1 415.165 1001.44 415.841 1000.96 416.693C1000.48 417.534 1000.24 418.472 1000.23 419.506V423.784C1000.23 425.08 1000.47 426.199 1000.94 427.142C1001.43 428.085 1002.12 428.812 1003.01 429.324C1003.89 429.835 1004.94 430.091 1006.16 430.091C1006.97 430.091 1007.71 429.977 1008.38 429.75C1009.05 429.523 1009.62 429.182 1010.1 428.727C1010.57 428.273 1010.94 427.716 1011.19 427.057L1017.9 427.5C1017.56 429.114 1016.86 430.523 1015.81 431.727C1014.76 432.92 1013.41 433.852 1011.75 434.523C1010.1 435.182 1008.2 435.511 1006.04 435.511ZM1022.8 435V408.818H1029.84V413.386H1030.11C1030.59 411.761 1031.39 410.534 1032.51 409.705C1033.64 408.864 1034.93 408.443 1036.4 408.443C1036.76 408.443 1037.15 408.466 1037.57 408.511C1038 408.557 1038.36 408.619 1038.68 408.699V415.142C1038.34 415.04 1037.87 414.949 1037.27 414.869C1036.67 414.79 1036.11 414.75 1035.61 414.75C1034.55 414.75 1033.59 414.983 1032.75 415.449C1031.92 415.903 1031.26 416.54 1030.77 417.358C1030.3 418.176 1030.06 419.119 1030.06 420.188V435H1022.8Z" fill="white"/>
<path d="M416.065 795.091H423.446V817.761C423.446 820.307 422.838 822.534 421.622 824.443C420.418 826.352 418.73 827.841 416.56 828.909C414.389 829.966 411.861 830.494 408.974 830.494C406.077 830.494 403.543 829.966 401.372 828.909C399.202 827.841 397.514 826.352 396.31 824.443C395.105 822.534 394.503 820.307 394.503 817.761V795.091H401.884V817.131C401.884 818.46 402.173 819.642 402.753 820.676C403.344 821.71 404.173 822.523 405.241 823.114C406.31 823.705 407.554 824 408.974 824C410.406 824 411.651 823.705 412.707 823.114C413.776 822.523 414.599 821.71 415.179 820.676C415.77 819.642 416.065 818.46 416.065 817.131V795.091ZM451.166 811.284L444.518 811.693C444.405 811.125 444.161 810.614 443.786 810.159C443.411 809.693 442.916 809.324 442.303 809.051C441.7 808.767 440.979 808.625 440.138 808.625C439.013 808.625 438.064 808.864 437.291 809.341C436.518 809.807 436.132 810.432 436.132 811.216C436.132 811.841 436.382 812.369 436.882 812.801C437.382 813.233 438.24 813.58 439.456 813.841L444.195 814.795C446.74 815.318 448.638 816.159 449.888 817.318C451.138 818.477 451.763 820 451.763 821.886C451.763 823.602 451.257 825.108 450.246 826.403C449.246 827.699 447.871 828.71 446.121 829.438C444.382 830.153 442.376 830.511 440.104 830.511C436.638 830.511 433.876 829.79 431.82 828.347C429.774 826.892 428.575 824.915 428.223 822.415L435.365 822.04C435.581 823.097 436.104 823.903 436.933 824.46C437.763 825.006 438.825 825.278 440.121 825.278C441.393 825.278 442.416 825.034 443.189 824.545C443.973 824.045 444.371 823.403 444.382 822.619C444.371 821.96 444.092 821.42 443.547 821C443.001 820.568 442.161 820.239 441.024 820.011L436.49 819.108C433.933 818.597 432.03 817.71 430.78 816.449C429.541 815.187 428.922 813.58 428.922 811.625C428.922 809.943 429.376 808.494 430.286 807.278C431.206 806.062 432.496 805.125 434.155 804.466C435.825 803.807 437.78 803.477 440.018 803.477C443.325 803.477 445.928 804.176 447.825 805.574C449.734 806.972 450.848 808.875 451.166 811.284ZM468.267 830.511C465.574 830.511 463.256 829.966 461.312 828.875C459.381 827.773 457.892 826.216 456.847 824.205C455.801 822.182 455.278 819.79 455.278 817.028C455.278 814.335 455.801 811.972 456.847 809.938C457.892 807.903 459.364 806.318 461.261 805.182C463.17 804.045 465.409 803.477 467.977 803.477C469.705 803.477 471.313 803.756 472.801 804.312C474.301 804.858 475.608 805.682 476.722 806.784C477.847 807.886 478.722 809.273 479.347 810.943C479.972 812.602 480.284 814.545 480.284 816.773V818.767H458.176V814.267H473.449C473.449 813.222 473.222 812.295 472.767 811.489C472.313 810.682 471.682 810.051 470.875 809.597C470.08 809.131 469.153 808.898 468.097 808.898C466.994 808.898 466.017 809.153 465.165 809.665C464.324 810.165 463.665 810.841 463.188 811.693C462.71 812.534 462.466 813.472 462.455 814.506V818.784C462.455 820.08 462.693 821.199 463.17 822.142C463.659 823.085 464.347 823.812 465.233 824.324C466.119 824.835 467.17 825.091 468.386 825.091C469.193 825.091 469.932 824.977 470.602 824.75C471.273 824.523 471.847 824.182 472.324 823.727C472.801 823.273 473.165 822.716 473.415 822.057L480.131 822.5C479.79 824.114 479.091 825.523 478.034 826.727C476.989 827.92 475.636 828.852 473.977 829.523C472.33 830.182 470.426 830.511 468.267 830.511ZM485.023 830V803.818H492.062V808.386H492.335C492.813 806.761 493.614 805.534 494.739 804.705C495.864 803.864 497.159 803.443 498.625 803.443C498.989 803.443 499.381 803.466 499.801 803.511C500.222 803.557 500.591 803.619 500.909 803.699V810.142C500.568 810.04 500.097 809.949 499.494 809.869C498.892 809.79 498.341 809.75 497.841 809.75C496.773 809.75 495.818 809.983 494.977 810.449C494.148 810.903 493.489 811.54 493 812.358C492.523 813.176 492.284 814.119 492.284 815.188V830H485.023ZM529.085 817.864H535.358L538.511 821.92L541.614 825.534L547.46 832.864H540.574L536.551 827.92L534.489 824.989L529.085 817.864ZM547.989 812.545C547.989 816.352 547.267 819.591 545.824 822.261C544.392 824.932 542.438 826.972 539.96 828.381C537.494 829.778 534.722 830.477 531.642 830.477C528.54 830.477 525.756 829.773 523.29 828.364C520.824 826.955 518.875 824.915 517.443 822.244C516.011 819.574 515.295 816.341 515.295 812.545C515.295 808.739 516.011 805.5 517.443 802.83C518.875 800.159 520.824 798.125 523.29 796.727C525.756 795.318 528.54 794.614 531.642 794.614C534.722 794.614 537.494 795.318 539.96 796.727C542.438 798.125 544.392 800.159 545.824 802.83C547.267 805.5 547.989 808.739 547.989 812.545ZM540.506 812.545C540.506 810.08 540.136 808 539.398 806.307C538.67 804.614 537.642 803.33 536.312 802.455C534.983 801.58 533.426 801.142 531.642 801.142C529.858 801.142 528.301 801.58 526.972 802.455C525.642 803.33 524.608 804.614 523.869 806.307C523.142 808 522.778 810.08 522.778 812.545C522.778 815.011 523.142 817.091 523.869 818.784C524.608 820.477 525.642 821.761 526.972 822.636C528.301 823.511 529.858 823.949 531.642 823.949C533.426 823.949 534.983 823.511 536.312 822.636C537.642 821.761 538.67 820.477 539.398 818.784C540.136 817.091 540.506 815.011 540.506 812.545ZM570.109 818.852V803.818H577.371V830H570.399V825.244H570.126C569.536 826.778 568.553 828.011 567.178 828.943C565.814 829.875 564.149 830.341 562.183 830.341C560.433 830.341 558.893 829.943 557.564 829.148C556.234 828.352 555.195 827.222 554.445 825.756C553.706 824.29 553.331 822.534 553.32 820.489V803.818H560.581V819.193C560.592 820.739 561.007 821.96 561.825 822.858C562.643 823.756 563.74 824.205 565.115 824.205C565.99 824.205 566.808 824.006 567.57 823.608C568.331 823.199 568.945 822.597 569.411 821.801C569.888 821.006 570.121 820.023 570.109 818.852ZM595.111 830.511C592.418 830.511 590.099 829.966 588.156 828.875C586.224 827.773 584.736 826.216 583.69 824.205C582.645 822.182 582.122 819.79 582.122 817.028C582.122 814.335 582.645 811.972 583.69 809.938C584.736 807.903 586.207 806.318 588.105 805.182C590.014 804.045 592.253 803.477 594.821 803.477C596.548 803.477 598.156 803.756 599.645 804.312C601.145 804.858 602.452 805.682 603.565 806.784C604.69 807.886 605.565 809.273 606.19 810.943C606.815 812.602 607.128 814.545 607.128 816.773V818.767H585.02V814.267H600.293C600.293 813.222 600.065 812.295 599.611 811.489C599.156 810.682 598.526 810.051 597.719 809.597C596.923 809.131 595.997 808.898 594.94 808.898C593.838 808.898 592.861 809.153 592.009 809.665C591.168 810.165 590.509 810.841 590.031 811.693C589.554 812.534 589.31 813.472 589.298 814.506V818.784C589.298 820.08 589.537 821.199 590.014 822.142C590.503 823.085 591.19 823.812 592.077 824.324C592.963 824.835 594.014 825.091 595.23 825.091C596.037 825.091 596.776 824.977 597.446 824.75C598.116 824.523 598.69 824.182 599.168 823.727C599.645 823.273 600.009 822.716 600.259 822.057L606.974 822.5C606.634 824.114 605.935 825.523 604.878 826.727C603.832 827.92 602.48 828.852 600.821 829.523C599.173 830.182 597.27 830.511 595.111 830.511ZM611.866 830V803.818H618.906V808.386H619.179C619.656 806.761 620.457 805.534 621.582 804.705C622.707 803.864 624.003 803.443 625.469 803.443C625.832 803.443 626.224 803.466 626.645 803.511C627.065 803.557 627.435 803.619 627.753 803.699V810.142C627.412 810.04 626.94 809.949 626.338 809.869C625.736 809.79 625.185 809.75 624.685 809.75C623.616 809.75 622.662 809.983 621.821 810.449C620.991 810.903 620.332 811.54 619.844 812.358C619.366 813.176 619.128 814.119 619.128 815.188V830H611.866ZM636.787 839.818C635.866 839.818 635.003 839.744 634.196 839.597C633.401 839.46 632.741 839.284 632.219 839.068L633.855 833.648C634.707 833.909 635.474 834.051 636.156 834.074C636.849 834.097 637.446 833.938 637.946 833.597C638.457 833.256 638.872 832.676 639.19 831.858L639.616 830.75L630.224 803.818H637.861L643.281 823.045H643.554L649.026 803.818H656.713L646.537 832.83C646.048 834.239 645.384 835.466 644.543 836.511C643.713 837.568 642.662 838.381 641.389 838.949C640.116 839.528 638.582 839.818 636.787 839.818Z" fill="white"/>
<g clip-path="url(#clip1_6260_5687)">
<path d="M584.872 688.504C600.365 667.363 607.304 641.152 604.301 615.115C601.298 589.077 588.575 565.134 568.676 548.074C548.778 531.015 523.172 522.098 496.981 523.107C470.791 524.116 445.947 534.977 427.42 553.517C408.894 572.057 398.05 596.909 397.06 623.1C396.07 649.291 405.005 674.891 422.078 694.777C439.152 714.663 463.105 727.369 489.144 730.354C515.184 733.338 541.39 726.38 562.52 710.872H562.504C562.973 711.512 563.496 712.125 564.072 712.712L625.672 774.312C628.672 777.314 632.742 779.002 636.986 779.003C641.231 779.005 645.302 777.32 648.304 774.32C651.306 771.32 652.994 767.25 652.995 763.006C652.997 758.761 651.312 754.69 648.312 751.688L586.712 690.088C586.14 689.509 585.525 688.99 584.872 688.504ZM589 627C589 638.556 586.724 650 582.301 660.676C577.879 671.353 571.397 681.054 563.225 689.226C555.054 697.397 545.353 703.879 534.676 708.302C523.999 712.724 512.556 715 501 715C489.444 715 478 712.724 467.324 708.302C456.647 703.879 446.946 697.397 438.775 689.226C430.603 681.054 424.121 671.353 419.699 660.676C415.276 650 413 638.556 413 627C413 603.661 422.271 581.278 438.775 564.775C455.278 548.272 477.661 539 501 539C524.339 539 546.722 548.272 563.225 564.775C579.729 581.278 589 603.661 589 627Z" fill="#F8FAFC"/>
</g>
<path d="M244.728 244.868C261.916 232.536 264.513 175.62 269.898 153.76C275.284 131.901 297.558 133.009 297.558 133.009C297.558 133.009 291.775 143.073 294.134 150.583C296.493 158.092 312.65 164.805 312.65 164.805L309.165 173.992C309.165 173.992 301.888 173.062 297.558 181.724C286.247 204.349 305.958 270.411 305.958 270.411C305.958 270.411 274.314 315.336 274.314 349.161C274.314 370.836 284.573 389 284.573 389H270.177C270.177 389 249.06 363.868 244.728 351.308C240.397 338.748 242.129 326.189 242.129 326.189C242.129 326.189 219.174 324.889 198.819 326.189C178.464 327.487 164.889 344.986 162.439 354.773C159.989 364.561 158.975 389 158.975 389H147.592C140.664 367.62 135.162 359.957 138.146 349.161C146.415 319.259 144.791 302.299 142.876 294.745C140.962 287.191 128 280.597 128 280.597C134.349 267.662 144.563 261.359 168.709 260.797C196.588 260.15 227.541 257.199 244.728 244.868Z" fill="white"/>
<path d="M172.511 347.908C172.511 347.908 175.452 375.129 191.078 389H204.47C191.078 373.829 189.618 334.286 189.618 334.286C182.807 336.503 173.377 344.443 172.511 347.908Z" fill="white"/>
<path d="M149.249 414.433V420.957H142.99V430.214C142.99 432.286 143.739 433.079 146.428 433.079C147.354 433.079 148.5 432.991 149.602 432.903V439.339C148.412 439.603 146.472 439.912 144.048 439.912C136.378 439.912 134.967 435.504 134.967 432.11V420.957H131V414.433H134.967V410.51L142.549 407.028H142.99V414.433H149.249Z" fill="white"/>
<path d="M155.99 405H164.629V411.436H155.99V405ZM152.066 420.957V414.433H164.585V439.118H156.563V420.957H152.066Z" fill="white"/>
<path d="M177.907 417.695H178.7C179.494 415.227 181.213 413.552 186.062 413.552C191.131 413.552 194.966 416.02 194.966 422.015V439.118H186.943V424.396C186.943 421.707 185.445 420.472 182.976 420.472C180.199 420.472 178.656 421.839 178.656 425.189V439.118H170.634V414.433H177.907V417.695Z" fill="white"/>
<path d="M215.945 435.372H215.504C214.226 437.752 211.184 439.736 207.437 439.736C201.927 439.736 199.106 437.003 199.106 432.727C199.106 428.495 201.619 426.027 206.291 425.277L213.256 424.175C214.799 423.911 215.195 423.073 215.195 422.324V421.839C215.195 420.737 214.402 419.37 211.757 419.37C209.509 419.37 208.187 420.384 208.054 422.103H200.384C200.693 417.122 204.087 413.552 211.405 413.552C219.075 413.552 222.866 416.637 222.866 421.574V432.683H225.643V439.118H215.945V435.372ZM215.195 429.509V427.437H214.755C214.314 427.922 213.697 428.275 212.727 428.495L209.465 429.289C208.01 429.641 207.305 430.479 207.305 431.845C207.305 433.476 208.363 434.314 210.479 434.314C213.609 434.314 215.195 432.154 215.195 429.509Z" fill="white"/>
<path d="M245.424 431.184H250.053C249.259 437.311 245.909 440 239.826 440C232.2 440 228.761 435.504 228.761 426.776C228.761 419.238 231.406 413.552 239.826 413.552C246.879 413.552 249.215 417.343 249.832 422.368H245.16C244.719 419.15 243.176 417.21 239.826 417.21C235.418 417.21 233.302 420.12 233.302 426.776C233.302 432.947 235.065 436.253 239.826 436.253C243.132 436.253 244.939 434.402 245.424 431.184Z" fill="white"/>
<path d="M271.834 417.872H272.275C273.068 415.315 274.964 413.552 278.049 413.552C282.149 413.552 283.824 416.285 283.824 422.015V439.118H279.416V422.721C279.416 419.723 278.799 417.695 276.154 417.695C273.597 417.695 272.187 419.899 272.187 423.999V439.118H267.867V422.721C267.867 419.767 267.161 417.695 264.649 417.695C261.607 417.695 260.593 420.12 260.593 424.396V439.118H256.185V414.433H260.329V417.872H260.858C261.784 415.139 263.37 413.552 266.5 413.552C269.454 413.552 271.085 415.05 271.834 417.872Z" fill="white"/>
<path d="M309.748 421.266H304.987C304.679 418.709 303.356 416.99 299.918 416.99C297.273 416.99 294.937 418.092 294.937 420.561C294.937 422.236 295.774 423.382 298.199 423.955L303.18 425.101C307.72 426.115 310.145 428.539 310.145 432.33C310.145 436.65 307.279 440 300.359 440C294.231 440 290.529 437.708 289.647 432.286H294.716C295.422 435.416 297.273 436.562 300.447 436.562C303.092 436.562 305.56 435.592 305.56 432.771C305.56 431.096 304.502 429.817 301.769 429.156L295.951 427.79C292.6 426.996 290.44 424.836 290.44 421.045C290.44 416.637 293.791 413.552 300.006 413.552C307.059 413.552 309.351 417.475 309.748 421.266Z" fill="white"/>
<path d="M605.87 544.752C604.699 545.924 604.699 547.823 605.87 548.995C607.042 550.166 608.941 550.166 610.113 548.995L607.991 546.874L605.87 544.752ZM678.874 478.991C678.874 477.334 677.531 475.991 675.874 475.991L648.874 475.991C647.217 475.991 645.874 477.334 645.874 478.991C645.874 480.648 647.217 481.991 648.874 481.991L672.874 481.991L672.874 505.991C672.874 507.648 674.217 508.991 675.874 508.991C677.531 508.991 678.874 507.648 678.874 505.991L678.874 478.991ZM607.991 546.874L610.113 548.995L677.995 481.113L675.874 478.991L673.752 476.87L605.87 544.752L607.991 546.874Z" fill="white"/>
<path d="M576 517.882C576 519.539 577.343 520.882 579 520.882L606 520.882C607.657 520.882 609 519.539 609 517.882C609 516.225 607.657 514.882 606 514.882L582 514.882L582 490.882C582 489.225 580.657 487.882 579 487.882C577.343 487.882 576 489.225 576 490.882L576 517.882ZM649.004 452.121C650.175 450.95 650.175 449.05 649.004 447.879C647.832 446.707 645.933 446.707 644.761 447.879L646.882 450L649.004 452.121ZM579 517.882L581.121 520.004L649.004 452.121L646.882 450L644.761 447.879L576.879 515.761L579 517.882Z" fill="white"/>
<path d="M325.121 481.87C323.95 480.698 322.05 480.698 320.878 481.87C319.707 483.041 319.707 484.941 320.878 486.113L323 483.991L325.121 481.87ZM390.882 554.873C392.539 554.873 393.882 553.53 393.882 551.873L393.882 524.873C393.882 523.217 392.539 521.873 390.882 521.873C389.225 521.873 387.882 523.217 387.882 524.873L387.882 548.873L363.882 548.873C362.225 548.873 360.882 550.217 360.882 551.873C360.882 553.53 362.225 554.873 363.882 554.873L390.882 554.873ZM323 483.991L320.878 486.113L388.761 553.995L390.882 551.873L393.003 549.752L325.121 481.87L323 483.991Z" fill="white"/>
<path d="M351.991 452C350.334 452 348.991 453.343 348.991 455L348.991 482C348.991 483.657 350.334 485 351.991 485C353.648 485 354.991 483.657 354.991 482L354.991 458L378.991 458C380.648 458 381.991 456.657 381.991 455C381.991 453.343 380.648 452 378.991 452L351.991 452ZM417.752 525.004C418.924 526.175 420.823 526.175 421.995 525.004C423.166 523.832 423.166 521.933 421.995 520.761L419.873 522.882L417.752 525.004ZM351.991 455L349.87 457.121L417.752 525.004L419.873 522.882L421.995 520.761L354.113 452.879L351.991 455Z" fill="white"/>
<defs>
<clipPath id="clip0_6260_5687">
<rect width="96" height="96" fill="white" transform="translate(1368 734)"/>
</clipPath>
<clipPath id="clip1_6260_5687">
<rect width="256" height="256" fill="white" transform="translate(397 523)"/>
</clipPath>
</defs>
</svg>
